
<svg fill="#fff" width="30px" height="30px" version="1.1" viewBox="144 144 512 512" xmlns="http://www.w3.org/2000/svg">
 <path d="m397.57 265.7c59.82 0 108.32 48.496 108.32 108.32 0 35.215-16.934 67.613-44.938 87.852-5.8438 4.2227-9.1875 9.3984-10.953 16.02-1.1367 4.2461-1.4805 7.625-1.875 15.695-0.089844 1.875-0.15625 3.0352-0.23828 4.1484l-0.042969 0.55469c-0.25391 3.1406-0.70312 5.8867-1.4648 8.2383 4.043 4.1523 6.6133 10.395 6.6133 17.375 0 5.8086-1.7773 11.105-4.7031 15.113 2.9219 4.0078 4.7031 9.3086 4.7031 15.117 0 11.637-7.1445 21.227-16.348 22.523-4.418 17.453-20.234 30.375-39.07 30.375-18.836 0-34.656-12.922-39.074-30.383-9.1992-1.2891-16.348-10.879-16.348-22.516 0-5.8086 1.7812-11.109 4.7109-15.121-2.9297-4.0039-4.7109-9.3008-4.7109-15.109 0-7.0039 2.5898-13.27 6.6602-17.426-0.6875-1.9648-1.1758-4.2148-1.5156-6.7344l-0.14844-1.207c-0.16016-1.4141-0.27734-2.7852-0.45313-5.082-0.62891-8.2773-1.0078-11.406-2.1523-15.617-1.8672-6.8867-5.25-12.211-11.074-16.496-27.586-20.281-44.215-52.422-44.215-87.32 0-59.824 48.496-108.32 108.32-108.32zm25.676 311.1h-51.355c4.0234 10.25 14.004 17.504 25.68 17.504 11.672 0 21.652-7.2539 25.676-17.504zm8.8711-30.227h-69.094c-3.1797 0-5.7578 3.3828-5.7578 7.5586 0 4.1719 2.5781 7.5547 5.7578 7.5547h69.094c3.1797 0 5.7578-3.3828 5.7578-7.5547 0-4.1758-2.5781-7.5586-5.7578-7.5586zm0-30.227-5.7227-0.003906-64.129 0.066406c-2.8242 0.48828-5 3.6562-5 7.4922 0 4.1758 2.5781 7.5586 5.7578 7.5586h69.094c3.1797 0 5.7578-3.3828 5.7578-7.5586 0-4.1719-2.5781-7.5547-5.7578-7.5547zm-34.547-235.53c-51.477 0-93.207 41.727-93.207 93.203 0 30.039 14.301 57.68 38.055 75.145 8.7422 6.4297 13.988 14.691 16.707 24.715 1.4805 5.457 1.9336 9.1758 2.6367 18.426 0.16016 2.125 0.26562 3.3477 0.40234 4.5234 0.31641 2.793 0.55859 3.957 0.65625 4.4102l64.719-0.011719h4.6211c0.24609-0.85938 0.45703-2.2148 0.61328-4.1523 0.089844-1.0938 0.15234-2.1875 0.25-4.2227 0.44922-9.1445 0.86328-13.23 2.3672-18.863 2.6328-9.8398 7.9023-18.008 16.707-24.371 24.113-17.422 38.676-45.285 38.676-75.598 0-51.477-41.727-93.203-93.203-93.203zm125.65 124.72c0.9375-4.0664 4.9961-6.6016 9.0625-5.6641l43.41 10.02c4.0664 0.94141 6.6016 5 5.6641 9.0664-0.94141 4.0664-4.9961 6.6016-9.0625 5.6641l-43.41-10.023c-4.0664-0.9375-6.6016-4.9961-5.6641-9.0625zm-260.37-5.6641c4.0664-0.9375 8.125 1.5977 9.0664 5.6641 0.9375 4.0664-1.5977 8.125-5.6641 9.0625l-43.41 10.023c-4.0664 0.9375-8.125-1.5977-9.0625-5.6641-0.94141-4.0664 1.5977-8.125 5.6641-9.0664zm271.35-141.78c3.2422-2.6289 8-2.1289 10.629 1.1133 2.625 3.2461 2.125 8.0039-1.1172 10.629l-34.625 28.039c-3.2422 2.625-8 2.125-10.629-1.1172-2.625-3.2422-2.125-8.0039 1.1172-10.629zm-283.89 1.1133c2.625-3.2422 7.3867-3.7422 10.629-1.1133l34.621 28.035c3.2461 2.625 3.7461 7.3867 1.1172 10.629-2.625 3.2422-7.3828 3.7422-10.629 1.1172l-34.621-28.039c-3.2422-2.625-3.7422-7.3828-1.1172-10.629zm147.26-70.809c4.1719 0 7.5547 3.3828 7.5547 7.5586v44.551c0 4.1719-3.3828 7.5547-7.5547 7.5547-4.1758 0-7.5586-3.3828-7.5586-7.5547v-44.551c0-4.1758 3.3828-7.5586 7.5586-7.5586z"/>
</svg>